<?xml version="1.0" encoding="utf-8"?>
<!-- Generator: Adobe Illustrator 27.4.1, SVG Export Plug-In . SVG Version: 6.00 Build 0)  -->
<svg version="1.1" xmlns="http://www.w3.org/2000/svg" xmlns:xlink="http://www.w3.org/1999/xlink" x="0px" y="0px"
	 viewBox="0 0 885.17 365.27" style="enable-background:new 0 0 885.17 365.27;" xml:space="preserve">
<style type="text/css">
	.st0{fill:#0F1416;}
	.st1{opacity:0.75;}
	.st2{opacity:0.25;clip-path:url(#SVGID_00000028298414946029316650000006353015118230655657_);}
	.st3{fill:url(#SVGID_00000148628571648627528350000016068851593744636581_);}
	.st4{opacity:0.6;}
	.st5{opacity:0.4;}
	.st6{opacity:0.5;}
	.st7{opacity:0.25;}
	.st8{fill:url(#SVGID_00000162348752673595838390000016956168197164054937_);}
	.st9{fill:#DEE0D4;}
	.st10{opacity:0.75;clip-path:url(#SVGID_00000085218236340561501350000015054929680470724027_);}
	.st11{fill:url(#SVGID_00000153675662906984739800000012026195977272588686_);}
	.st12{fill:url(#SVGID_00000018213619280777962320000009412872233337611698_);}
	.st13{fill:url(#SVGID_00000047058628296333474270000005781197102225151630_);}
	.st14{fill:url(#SVGID_00000058585998358226295250000000997046082433883808_);}
	.st15{fill:url(#SVGID_00000059993061820178630580000001617779163773783739_);}
	.st16{fill:url(#SVGID_00000046312297903377045890000012767475388620954244_);}
	.st17{fill:url(#SVGID_00000118394798977972740160000014081948632361702296_);}
	.st18{fill:url(#SVGID_00000136381579880910732520000008144662359819086993_);}
	.st19{fill:url(#SVGID_00000178896605928548093220000014077186626259963536_);}
	.st20{fill:url(#SVGID_00000008853786526067371530000002999336963110169497_);}
	.st21{fill:#E6E7E2;}
	.st22{fill:#DEDC75;}
	.st23{fill:none;stroke:#0F1416;stroke-miterlimit:10;}
	.st24{fill:#2B393F;}
	.st25{fill:none;stroke:#0F1416;stroke-width:2;stroke-miterlimit:10;}
	.st26{opacity:0.25;clip-path:url(#SVGID_00000175311034835047936040000010488574274304699038_);}
	.st27{fill:url(#SVGID_00000087396577334846655590000009918500680008400828_);}
	.st28{opacity:0.25;clip-path:url(#SVGID_00000098907600170480088160000006561994486485858697_);}
	.st29{fill:url(#SVGID_00000093170652663689032540000014333329928373156787_);}
	.st30{fill:#D3D8D2;}
	.st31{fill:none;stroke:#DDE0D3;stroke-width:2;stroke-miterlimit:10;}
	.st32{fill:none;stroke:#D1D6D4;stroke-miterlimit:10;}
	.st33{fill:none;stroke:#96A99F;stroke-width:2;stroke-miterlimit:10;}
	.st34{clip-path:url(#SVGID_00000030452886060394958730000007366231417244055967_);}
	.st35{fill:none;stroke:#0F1416;stroke-width:4;stroke-miterlimit:10;}
	.st36{fill:#CBCBCB;}
	.st37{fill:none;stroke:#E8E9E4;stroke-width:4;stroke-miterlimit:10;}
	.st38{fill:none;stroke:#E8E9E4;stroke-width:2;stroke-miterlimit:10;}
	.st39{clip-path:url(#SVGID_00000115506864290452674440000011081515593289195436_);}
	.st40{fill:#006837;}
	.st41{fill:#FFFFFF;}
	.st42{fill:#DC3750;}
	.st43{fill:#534741;}
	.st44{clip-path:url(#SVGID_00000117658623597068544550000002357152517636525489_);}
	.st45{fill:#D1D6D4;}
	.st46{clip-path:url(#SVGID_00000117652991855485291870000014025883928010618274_);}
	.st47{opacity:0.65;fill:#0F1416;}
	.st48{fill:none;stroke:#96A99F;stroke-width:12;stroke-linecap:round;stroke-miterlimit:10;}
	.st49{fill:none;stroke:#E8E9E4;stroke-width:12;stroke-linecap:round;stroke-miterlimit:10;}
	.st50{clip-path:url(#SVGID_00000097483162547422649870000015615199559574424747_);}
	.st51{opacity:0.65;fill:#E8E9E4;}
	.st52{fill:none;stroke:#808080;stroke-width:12;stroke-linecap:round;stroke-miterlimit:10;}
	.st53{fill:none;stroke:#0F1416;stroke-width:12;stroke-linecap:round;stroke-miterlimit:10;}
	.st54{fill:#DCD837;}
	.st55{fill:#DCDA5E;}
	.st56{fill:#DDDC85;}
	.st57{fill:#DDDEAC;}
	.st58{fill:#DDE0D3;}
	.st59{fill:#96A99F;}
	.st60{fill:#AAB8B1;}
	.st61{fill:#BEC7C2;}
	.st62{fill:#E5E5E5;}
	.st63{fill:#E8E9E4;}
	.st64{fill:none;stroke:#E8E9E4;stroke-miterlimit:10;}
	.st65{fill:none;stroke:#D1D6D4;stroke-width:6;stroke-linecap:round;stroke-miterlimit:10;}
	.st66{clip-path:url(#SVGID_00000126306945483142814750000017724909682584664236_);}
	.st67{fill:#DBD858;}
	.st68{fill:#010100;}
	.st69{fill:none;stroke:#0F1416;stroke-width:0.5;stroke-miterlimit:10;}
	.st70{clip-path:url(#SVGID_00000139978756312776386000000013227095677296878264_);}
	.st71{clip-path:url(#SVGID_00000018208456460057040870000014462806105206304918_);}
	.st72{fill:#101416;}
	.st73{fill:#2E393E;}
	.st74{fill:#9AA8A0;}
	.st75{fill:#ADB9B1;}
	.st76{fill:#C0C8C1;}
	.st77{fill:#E1E096;}
	.st78{fill:#E4E3BC;}
	.st79{clip-path:url(#SVGID_00000152257006497530286100000009016316172705229212_);}
	.st80{clip-path:url(#SVGID_00000000206026170016535420000015296126564815495313_);}
	.st81{clip-path:url(#SVGID_00000134942420115542010760000006145036064860667794_);}
	.st82{clip-path:url(#SVGID_00000121989938981355657930000007295927202028115898_);}
	.st83{clip-path:url(#SVGID_00000049199049310791996920000009427264896791956131_);}
	.st84{clip-path:url(#SVGID_00000069386244392053557890000000367903770177138578_);}
	.st85{clip-path:url(#SVGID_00000073001281358957531460000008922540274737625246_);}
	.st86{clip-path:url(#SVGID_00000093861082057535820450000017434297052875015057_);}
	.st87{clip-path:url(#SVGID_00000102544218741901033930000014865746263830848672_);}
	.st88{clip-path:url(#SVGID_00000073718118642054566040000005093248734091255996_);}
	.st89{clip-path:url(#SVGID_00000073691213999395792710000008537563038128444603_);}
	.st90{clip-path:url(#SVGID_00000057119728041600812060000009102493125906122368_);}
</style>
<g id="Capa_1">
	<g>
		<g>
			<g>
				<g>
					<path class="st21" d="M258.87,160.96h33.56c17.89,0.4,17.89,0.4,21.15,2.86c3.02,2.31,4.29,6.28,4.29,13.52
						c0,7.16-1.11,10.97-3.98,13.36c-2.78,2.46-5.09,3.1-11.61,3.26c-1.67,0.08-1.67,0.08-9.86,0.08h-26.48V214h-7.08V160.96z
						 M292.42,187.84c12.88,0,13.92-0.16,16.06-1.91c1.59-1.35,2.15-3.34,2.15-8.35c0-5.49-0.4-7.24-1.99-8.43
						c-2.15-1.59-2.94-1.75-16.22-1.99h-26.48v20.67H292.42z"/>
					<path class="st21" d="M330.35,160.96v46.84h41.83v6.2h-48.9v-53.04H330.35z"/>
					<path class="st21" d="M431.82,202.79h-42.86L382.67,214h-8.03l30.06-53.04h11.29L445.97,214h-7.87L431.82,202.79z
						 M411.94,167.16h-2.86l-16.7,29.42h36.1L411.94,167.16z"/>
					<path class="st21" d="M460.92,160.96l46.36,46.52h1.67v-46.52h7.08V214h-12.01l-46.2-46.36h-1.59V214h-7.08v-53.04H460.92z"/>
					<path class="st21" d="M531.06,160.96v22.82h9.22l34.35-22.82h12.4L547.6,186.8L589.1,214h-12.56l-36.26-24.01h-9.22V214h-7.08
						v-53.04H531.06z"/>
					<path class="st21" d="M650.89,160.96v6.2h-26.48V214h-7.08v-46.84H590.7v-6.2H650.89z"/>
					<path class="st21" d="M716.01,165.1c2.15,2.07,3.1,4.61,3.74,9.94c0.32,2.86,0.56,8.27,0.56,12.64c0,13.04-1.11,19-4.06,22.19
						c-3.1,3.34-8.91,4.29-25.21,4.29c-7.95,0-19.72-0.32-22.74-0.64c-5.33-0.48-7.95-1.51-10.34-4.06
						c-3.18-3.26-3.98-7.87-3.98-22.19c0-14.23,1.27-19.88,5.17-22.9c2.62-1.99,5.25-2.7,12.01-3.1c3.26-0.24,12.48-0.48,17.57-0.48
						C706.87,160.8,712.6,161.68,716.01,165.1z M663.93,169.79c-1.91,1.75-2.7,6.76-2.7,16.94c0,11.77,0.56,16.38,2.23,18.21
						c1.35,1.51,3.42,2.07,8.91,2.39c2.94,0.24,11.93,0.48,15.74,0.48c7.71,0,15.11-0.4,18.69-1.03c3.1-0.56,4.77-2.23,5.41-5.41
						c0.48-2.86,0.87-8.59,0.87-13.52c0-5.96-0.32-12.32-0.8-14.71c-0.48-3.02-2.39-4.61-5.96-5.17c-4.05-0.64-8.19-0.79-21.71-0.79
						C671.41,167.16,666,167.88,663.93,169.79z"/>
					<path class="st21" d="M739,160.96l46.36,46.52h1.67v-46.52h7.08V214h-12.01l-46.2-46.36h-1.59V214h-7.08v-53.04H739z"/>
				</g>
				<g>
					<path class="st21" d="M823.54,213.28c-1.79,1.8-3.96,2.7-6.51,2.7c-2.54,0-4.71-0.9-6.49-2.7c-1.78-1.79-2.67-3.97-2.67-6.52
						c0-2.53,0.9-4.69,2.69-6.48c1.79-1.79,3.94-2.68,6.47-2.68c2.55,0,4.71,0.89,6.51,2.68c1.79,1.79,2.69,3.95,2.69,6.48
						C826.23,209.3,825.33,211.48,823.54,213.28z M811.45,201.18c-1.54,1.54-2.3,3.41-2.3,5.59c0,2.2,0.76,4.08,2.29,5.63
						c1.54,1.55,3.4,2.33,5.59,2.33c2.2,0,4.06-0.78,5.59-2.33c1.54-1.55,2.3-3.43,2.3-5.63c0-2.19-0.77-4.05-2.3-5.59
						c-1.54-1.55-3.41-2.33-5.59-2.33C814.85,198.85,812.99,199.62,811.45,201.18z M816.86,201.69c1.25,0,2.17,0.12,2.75,0.36
						c1.04,0.43,1.56,1.29,1.56,2.56c0,0.9-0.33,1.57-0.98,1.99c-0.35,0.23-0.84,0.39-1.46,0.49c0.79,0.12,1.37,0.45,1.73,0.99
						c0.37,0.53,0.55,1.05,0.55,1.56v0.74c0,0.23,0.01,0.48,0.03,0.75c0.02,0.27,0.05,0.44,0.09,0.53l0.06,0.12h-1.66
						c-0.01-0.03-0.02-0.07-0.03-0.1c-0.01-0.03-0.02-0.07-0.02-0.11l-0.04-0.32v-0.8c0-1.16-0.32-1.93-0.95-2.31
						c-0.38-0.22-1.04-0.32-1.98-0.32h-1.4v3.97h-1.78v-10.09H816.86z M818.78,203.28c-0.45-0.25-1.17-0.38-2.15-0.38h-1.52v3.65
						h1.61c0.75,0,1.32-0.08,1.69-0.23c0.69-0.28,1.04-0.8,1.04-1.58C819.45,204.02,819.22,203.53,818.78,203.28z"/>
				</g>
			</g>
			<path class="st21" d="M243.34,91.32h-91.31c-0.84,0-1.65,0.33-2.25,0.93l-58.01,58.01c-1,1-0.29,2.71,1.12,2.71h104.12
				c5.66,0,8.49,6.84,4.49,10.84l-45.22,45.22c-3.57,3.57-5.58,8.42-5.58,13.47v49.92c0,1.41,1.71,2.12,2.71,1.12l58.47-58.47
				c0.3-0.3,0.47-0.7,0.47-1.12v-53.1c0-5.05,2.01-9.9,5.58-13.47L252.33,113C260.33,105,254.66,91.32,243.34,91.32z"/>
		</g>
		<g>
			<path class="st21" d="M682.69,236.68v24.62h-2.78l-13.3-20.19v20.19h-2.78v-24.62h2.78l13.3,20.16v-20.16H682.69z"/>
			<path class="st21" d="M716.95,238.97h-13.37v8.65h10.2v2.29h-10.2v9.08h13.37v2.32h-16.15v-24.62h16.15V238.97z"/>
			<path class="st21" d="M742.07,261.31h-3.06l-6.82-24.62h2.96l5.49,21.21l6.16-21.21h3.13l5.91,21.18l5.52-21.18h2.99l-7.04,24.62
				h-3.13l-5.94-20.4L742.07,261.31z"/>
			<path class="st21" d="M780.93,255.19c0.16,0.68,0.48,1.33,0.95,1.93c0.47,0.61,1.11,1.1,1.92,1.48c0.81,0.38,1.8,0.56,2.97,0.56
				c1.64,0,2.92-0.42,3.83-1.25c0.91-0.83,1.37-1.86,1.37-3.08c0-0.98-0.24-1.77-0.72-2.36c-0.48-0.59-1.12-1.05-1.92-1.39
				c-0.8-0.34-1.67-0.63-2.62-0.88c-0.95-0.25-1.9-0.52-2.85-0.81c-0.95-0.29-1.82-0.68-2.62-1.16c-0.8-0.48-1.44-1.13-1.92-1.93
				c-0.48-0.81-0.72-1.88-0.72-3.22c0-1.31,0.33-2.47,0.98-3.48c0.66-1.01,1.58-1.79,2.78-2.36c1.2-0.56,2.6-0.84,4.22-0.84
				c2.04,0,3.72,0.45,5.05,1.34c1.32,0.89,2.23,2.03,2.73,3.41l-2.57,0.98c-0.26-0.82-0.84-1.58-1.76-2.27
				c-0.91-0.69-2.11-1.05-3.59-1.07c-1.38,0-2.57,0.36-3.55,1.07c-0.98,0.72-1.48,1.75-1.48,3.11c0,0.99,0.25,1.77,0.74,2.34
				c0.49,0.57,1.13,1.03,1.92,1.37c0.79,0.34,1.65,0.63,2.6,0.88c0.95,0.25,1.9,0.52,2.85,0.83s1.82,0.7,2.62,1.18
				c0.8,0.48,1.44,1.13,1.92,1.95c0.48,0.82,0.72,1.88,0.72,3.17c0,1.15-0.3,2.25-0.9,3.29c-0.6,1.04-1.5,1.9-2.69,2.57
				c-1.2,0.67-2.67,1-4.43,1c-2.18,0-4.03-0.5-5.54-1.49c-1.51-1-2.49-2.29-2.94-3.89L780.93,255.19z"/>
		</g>
	</g>
</g>
<g id="Browser">
</g>
</svg>
